solid Arduino_4x20_Anzeige_Blende
facet normal 0.0 0.0 -1.0
  outer loop
    vertex 71.84161246694893 115.01266388035744 0.0
    vertex 78.84161246694892 108.01266388035745 0.0
    vertex 71.84161246694893 4.012663880357436 0.0
  endloop
endfacet
facet normal 0.0 0.0 -1.0
  outer loop
    vertex 78.84161246694892 108.01266388035745 0.0
    vertex 71.84161246694893 115.01266388035744 0.0
    vertex 125.84161246694892 115.01266388035744 0.0
  endloop
endfacet
facet normal 0.0 0.0 -1.0
  outer loop
    vertex 78.84161246694892 108.01266388035745 0.0
    vertex 125.84161246694892 115.01266388035744 0.0
    vertex 118.84161246694893 108.01266388035745 0.0
  endloop
endfacet
facet normal 0.0 0.0 -1.0
  outer loop
    vertex 118.84161246694893 108.01266388035745 0.0
    vertex 125.84161246694892 115.01266388035744 0.0
    vertex 118.84161246694893 11.012663880357437 0.0
  endloop
endfacet
facet normal 0.0 0.0 -1.0
  outer loop
    vertex 71.84161246694893 4.012663880357436 0.0
    vertex 78.84161246694892 11.012663880357437 0.0
    vertex 125.84161246694892 4.012663880357436 0.0
  endloop
endfacet
facet normal 0.0 0.0 -1.0
  outer loop
    vertex 78.84161246694892 11.012663880357437 0.0
    vertex 71.84161246694893 4.012663880357436 0.0
    vertex 78.84161246694892 108.01266388035745 0.0
  endloop
endfacet
facet normal 0.0 0.0 -1.0
  outer loop
    vertex 125.84161246694892 4.012663880357436 0.0
    vertex 78.84161246694892 11.012663880357437 0.0
    vertex 118.84161246694893 11.012663880357437 0.0
  endloop
endfacet
facet normal 0.0 0.0 -1.0
  outer loop
    vertex 125.84161246694892 4.012663880357436 0.0
    vertex 118.84161246694893 11.012663880357437 0.0
    vertex 125.84161246694892 115.01266388035744 0.0
  endloop
endfacet
facet normal -0.0 -1.0 -0.0
  outer loop
    vertex 125.84161246694892 4.012663880357436 1.4999999999999998
    vertex 71.84161246694893 4.012663880357436 0.0
    vertex 125.84161246694892 4.012663880357436 0.0
  endloop
endfacet
facet normal -0.0 -1.0 -0.0
  outer loop
    vertex 71.84161246694893 4.012663880357436 0.0
    vertex 125.84161246694892 4.012663880357436 1.4999999999999998
    vertex 71.84161246694893 4.012663880357436 1.4999999999999998
  endloop
endfacet
facet normal -1.0 0.0 0.0
  outer loop
    vertex 71.84161246694893 115.01266388035744 1.4999999999999998
    vertex 71.84161246694893 4.012663880357436 0.0
    vertex 71.84161246694893 4.012663880357436 1.4999999999999998
  endloop
endfacet
facet normal -1.0 0.0 0.0
  outer loop
    vertex 71.84161246694893 4.012663880357436 0.0
    vertex 71.84161246694893 115.01266388035744 1.4999999999999998
    vertex 71.84161246694893 115.01266388035744 0.0
  endloop
endfacet
facet normal 0.0 1.0 0.0
  outer loop
    vertex 71.84161246694893 115.01266388035744 1.4999999999999998
    vertex 125.84161246694892 115.01266388035744 0.0
    vertex 71.84161246694893 115.01266388035744 0.0
  endloop
endfacet
facet normal 0.0 1.0 0.0
  outer loop
    vertex 125.84161246694892 115.01266388035744 0.0
    vertex 71.84161246694893 115.01266388035744 1.4999999999999998
    vertex 125.84161246694892 115.01266388035744 1.4999999999999998
  endloop
endfacet
facet normal 1.0 0.0 0.0
  outer loop
    vertex 125.84161246694892 115.01266388035744 0.0
    vertex 125.84161246694892 4.012663880357436 1.4999999999999998
    vertex 125.84161246694892 4.012663880357436 0.0
  endloop
endfacet
facet normal 1.0 0.0 0.0
  outer loop
    vertex 125.84161246694892 4.012663880357436 1.4999999999999998
    vertex 125.84161246694892 115.01266388035744 0.0
    vertex 125.84161246694892 115.01266388035744 1.4999999999999998
  endloop
endfacet
facet normal -1.0 0.0 -0.0
  outer loop
    vertex 118.84161246694893 108.01266388035745 10.0
    vertex 118.84161246694893 11.012663880357437 0.0
    vertex 118.84161246694893 11.012663880357437 10.0
  endloop
endfacet
facet normal -1.0 0.0 -0.0
  outer loop
    vertex 118.84161246694893 11.012663880357437 0.0
    vertex 118.84161246694893 108.01266388035745 10.0
    vertex 118.84161246694893 108.01266388035745 0.0
  endloop
endfacet
facet normal -0.0 -1.0 -0.0
  outer loop
    vertex 118.84161246694893 108.01266388035745 10.0
    vertex 78.84161246694892 108.01266388035745 0.0
    vertex 118.84161246694893 108.01266388035745 0.0
  endloop
endfacet
facet normal -0.0 -1.0 -0.0
  outer loop
    vertex 78.84161246694892 108.01266388035745 0.0
    vertex 118.84161246694893 108.01266388035745 10.0
    vertex 78.84161246694892 108.01266388035745 10.0
  endloop
endfacet
facet normal 1.0 0.0 0.0
  outer loop
    vertex 78.84161246694892 108.01266388035745 0.0
    vertex 78.84161246694892 11.012663880357437 10.0
    vertex 78.84161246694892 11.012663880357437 0.0
  endloop
endfacet
facet normal 1.0 0.0 0.0
  outer loop
    vertex 78.84161246694892 11.012663880357437 10.0
    vertex 78.84161246694892 108.01266388035745 0.0
    vertex 78.84161246694892 108.01266388035745 10.0
  endloop
endfacet
facet normal 0.0 1.0 0.0
  outer loop
    vertex 78.84161246694892 11.012663880357437 10.0
    vertex 118.84161246694893 11.012663880357437 0.0
    vertex 78.84161246694892 11.012663880357437 0.0
  endloop
endfacet
facet normal 0.0 1.0 0.0
  outer loop
    vertex 118.84161246694893 11.012663880357437 0.0
    vertex 78.84161246694892 11.012663880357437 10.0
    vertex 118.84161246694893 11.012663880357437 10.0
  endloop
endfacet
facet normal 0.0 0.0 1.0
  outer loop
    vertex 76.84161246694893 9.012663880357438 10.0
    vertex 78.84161246694892 11.012663880357437 10.0
    vertex 76.84161246694893 110.01266388035745 10.0
  endloop
endfacet
facet normal 0.0 0.0 1.0
  outer loop
    vertex 78.84161246694892 11.012663880357437 10.0
    vertex 76.84161246694893 9.012663880357438 10.0
    vertex 120.84161246694893 9.012663880357438 10.0
  endloop
endfacet
facet normal 0.0 0.0 1.0
  outer loop
    vertex 78.84161246694892 11.012663880357437 10.0
    vertex 120.84161246694893 9.012663880357438 10.0
    vertex 118.84161246694893 11.012663880357437 10.0
  endloop
endfacet
facet normal 0.0 0.0 1.0
  outer loop
    vertex 118.84161246694893 11.012663880357437 10.0
    vertex 120.84161246694893 9.012663880357438 10.0
    vertex 118.84161246694893 108.01266388035745 10.0
  endloop
endfacet
facet normal 0.0 0.0 1.0
  outer loop
    vertex 76.84161246694893 110.01266388035745 10.0
    vertex 78.84161246694892 108.01266388035745 10.0
    vertex 120.84161246694893 110.01266388035745 10.0
  endloop
endfacet
facet normal 0.0 0.0 1.0
  outer loop
    vertex 78.84161246694892 108.01266388035745 10.0
    vertex 76.84161246694893 110.01266388035745 10.0
    vertex 78.84161246694892 11.012663880357437 10.0
  endloop
endfacet
facet normal 0.0 0.0 1.0
  outer loop
    vertex 120.84161246694893 110.01266388035745 10.0
    vertex 78.84161246694892 108.01266388035745 10.0
    vertex 118.84161246694893 108.01266388035745 10.0
  endloop
endfacet
facet normal 0.0 0.0 1.0
  outer loop
    vertex 120.84161246694893 110.01266388035745 10.0
    vertex 118.84161246694893 108.01266388035745 10.0
    vertex 120.84161246694893 9.012663880357438 10.0
  endloop
endfacet
facet normal 0.0 0.0 1.0
  outer loop
    vertex 71.84161246694893 4.012663880357436 1.4999999999999998
    vertex 76.84161246694893 9.012663880357438 1.4999999999999998
    vertex 71.84161246694893 115.01266388035744 1.4999999999999998
  endloop
endfacet
facet normal 0.0 0.0 1.0
  outer loop
    vertex 76.84161246694893 9.012663880357438 1.4999999999999998
    vertex 71.84161246694893 4.012663880357436 1.4999999999999998
    vertex 125.84161246694892 4.012663880357436 1.4999999999999998
  endloop
endfacet
facet normal 0.0 0.0 1.0
  outer loop
    vertex 76.84161246694893 9.012663880357438 1.4999999999999998
    vertex 125.84161246694892 4.012663880357436 1.4999999999999998
    vertex 120.84161246694893 9.012663880357438 1.4999999999999998
  endloop
endfacet
facet normal 0.0 0.0 1.0
  outer loop
    vertex 120.84161246694893 9.012663880357438 1.4999999999999998
    vertex 125.84161246694892 4.012663880357436 1.4999999999999998
    vertex 120.84161246694893 110.01266388035745 1.4999999999999998
  endloop
endfacet
facet normal 0.0 0.0 1.0
  outer loop
    vertex 71.84161246694893 115.01266388035744 1.4999999999999998
    vertex 76.84161246694893 110.01266388035745 1.4999999999999998
    vertex 125.84161246694892 115.01266388035744 1.4999999999999998
  endloop
endfacet
facet normal 0.0 0.0 1.0
  outer loop
    vertex 76.84161246694893 110.01266388035745 1.4999999999999998
    vertex 71.84161246694893 115.01266388035744 1.4999999999999998
    vertex 76.84161246694893 9.012663880357438 1.4999999999999998
  endloop
endfacet
facet normal 0.0 0.0 1.0
  outer loop
    vertex 125.84161246694892 115.01266388035744 1.4999999999999998
    vertex 76.84161246694893 110.01266388035745 1.4999999999999998
    vertex 120.84161246694893 110.01266388035745 1.4999999999999998
  endloop
endfacet
facet normal 0.0 0.0 1.0
  outer loop
    vertex 125.84161246694892 115.01266388035744 1.4999999999999998
    vertex 120.84161246694893 110.01266388035745 1.4999999999999998
    vertex 125.84161246694892 4.012663880357436 1.4999999999999998
  endloop
endfacet
facet normal -1.0 0.0 -0.0
  outer loop
    vertex 76.84161246694893 110.01266388035745 10.0
    vertex 76.84161246694893 9.012663880357438 1.4999999999999998
    vertex 76.84161246694893 9.012663880357438 10.0
  endloop
endfacet
facet normal -1.0 0.0 -0.0
  outer loop
    vertex 76.84161246694893 9.012663880357438 1.4999999999999998
    vertex 76.84161246694893 110.01266388035745 10.0
    vertex 76.84161246694893 110.01266388035745 1.4999999999999998
  endloop
endfacet
facet normal 0.0 1.0 0.0
  outer loop
    vertex 76.84161246694893 110.01266388035745 10.0
    vertex 120.84161246694893 110.01266388035745 1.4999999999999998
    vertex 76.84161246694893 110.01266388035745 1.4999999999999998
  endloop
endfacet
facet normal 0.0 1.0 0.0
  outer loop
    vertex 120.84161246694893 110.01266388035745 1.4999999999999998
    vertex 76.84161246694893 110.01266388035745 10.0
    vertex 120.84161246694893 110.01266388035745 10.0
  endloop
endfacet
facet normal 1.0 0.0 0.0
  outer loop
    vertex 120.84161246694893 110.01266388035745 1.4999999999999998
    vertex 120.84161246694893 9.012663880357438 10.0
    vertex 120.84161246694893 9.012663880357438 1.4999999999999998
  endloop
endfacet
facet normal 1.0 0.0 0.0
  outer loop
    vertex 120.84161246694893 9.012663880357438 10.0
    vertex 120.84161246694893 110.01266388035745 1.4999999999999998
    vertex 120.84161246694893 110.01266388035745 10.0
  endloop
endfacet
facet normal -0.0 -1.0 -0.0
  outer loop
    vertex 120.84161246694893 9.012663880357438 10.0
    vertex 76.84161246694893 9.012663880357438 1.4999999999999998
    vertex 120.84161246694893 9.012663880357438 1.4999999999999998
  endloop
endfacet
facet normal -0.0 -1.0 -0.0
  outer loop
    vertex 76.84161246694893 9.012663880357438 1.4999999999999998
    vertex 120.84161246694893 9.012663880357438 10.0
    vertex 76.84161246694893 9.012663880357438 10.0
  endloop
endfacet
endsolid Arduino_4x20_Anzeige_Blende
